<svg width="125" height="37" viewBox="0 0 125 37" fill="none" xmlns="http://www.w3.org/2000/svg">
<path d="M7.92773 29H3.12891V14.9551H0.791016V10.1738H3.12891V9.27734C3.12891 8.11719 3.3457 7.02734 3.7793 6.00781C4.22461 4.98828 4.82812 4.10352 5.58984 3.35352C6.36328 2.5918 7.25977 1.99414 8.2793 1.56055C9.29883 1.11523 10.3887 0.892578 11.5488 0.892578H15.1523V5.67383H11.5488C11.0332 5.67383 10.5527 5.76758 10.1074 5.95508C9.67383 6.13086 9.29297 6.38281 8.96484 6.71094C8.64844 7.02734 8.39648 7.4082 8.20898 7.85352C8.02148 8.28711 7.92773 8.76172 7.92773 9.27734V10.1738H13.8164V14.9551H7.92773V29ZM22.4648 5.05859C22.4648 5.50391 22.377 5.91992 22.2012 6.30664C22.0371 6.69336 21.8086 7.0332 21.5156 7.32617C21.2227 7.60742 20.877 7.83594 20.4785 8.01172C20.0918 8.17578 19.6758 8.25781 19.2305 8.25781C18.7852 8.25781 18.3633 8.17578 17.9648 8.01172C17.5781 7.83594 17.2383 7.60742 16.9453 7.32617C16.6641 7.0332 16.4355 6.69336 16.2598 6.30664C16.0957 5.91992 16.0137 5.50391 16.0137 5.05859C16.0137 4.625 16.0957 4.21484 16.2598 3.82812C16.4355 3.42969 16.6641 3.08984 16.9453 2.80859C17.2383 2.51562 17.5781 2.28711 17.9648 2.12305C18.3633 1.94727 18.7852 1.85938 19.2305 1.85938C19.6758 1.85938 20.0918 1.94727 20.4785 2.12305C20.877 2.28711 21.2227 2.51562 21.5156 2.80859C21.8086 3.08984 22.0371 3.42969 22.2012 3.82812C22.377 4.21484 22.4648 4.625 22.4648 5.05859ZM21.6387 29H16.8047V10.1738H21.6387V29ZM30.1113 29H25.3125V10.1738H26.4727L28.0547 12.002C28.8281 11.2988 29.7012 10.7598 30.6738 10.3848C31.6582 9.99805 32.6836 9.80469 33.75 9.80469C34.8984 9.80469 35.9824 10.0273 37.002 10.4727C38.0215 10.9062 38.9121 11.5098 39.6738 12.2832C40.4355 13.0449 41.0332 13.9414 41.4668 14.9727C41.9121 15.9922 42.1348 17.082 42.1348 18.2422V29H37.3359V18.2422C37.3359 17.75 37.2422 17.2871 37.0547 16.8535C36.8672 16.4082 36.6094 16.0215 36.2812 15.6934C35.9531 15.3652 35.5723 15.1074 35.1387 14.9199C34.7051 14.7324 34.2422 14.6387 33.75 14.6387C33.2461 14.6387 32.7715 14.7324 32.3262 14.9199C31.8809 15.1074 31.4941 15.3652 31.166 15.6934C30.8379 16.0215 30.5801 16.4082 30.3926 16.8535C30.2051 17.2871 30.1113 17.75 30.1113 18.2422V29ZM63.7559 29H62.5957L60.7324 26.416C60.2754 26.8262 59.7891 27.2129 59.2734 27.5762C58.7695 27.9277 58.2363 28.2383 57.6738 28.5078C57.1113 28.7656 56.5312 28.9707 55.9336 29.123C55.3477 29.2754 54.75 29.3516 54.1406 29.3516C52.8164 29.3516 51.5684 29.1055 50.3965 28.6133C49.2363 28.1094 48.2168 27.418 47.3379 26.5391C46.4707 25.6484 45.7852 24.5996 45.2812 23.3926C44.7773 22.1738 44.5254 20.8496 44.5254 19.4199C44.5254 18.002 44.7773 16.6836 45.2812 15.4648C45.7852 14.2461 46.4707 13.1914 47.3379 12.3008C48.2168 11.4102 49.2363 10.7129 50.3965 10.209C51.5684 9.70508 52.8164 9.45312 54.1406 9.45312C54.5625 9.45312 54.9961 9.48828 55.4414 9.55859C55.8984 9.62891 56.3379 9.74609 56.7598 9.91016C57.1934 10.0625 57.5977 10.2676 57.9727 10.5254C58.3477 10.7832 58.6641 11.0996 58.9219 11.4746V2.68555H63.7559V29ZM58.9219 19.4199C58.9219 18.7637 58.793 18.1309 58.5352 17.5215C58.2891 16.9004 57.9492 16.3555 57.5156 15.8867C57.082 15.4062 56.5723 15.0254 55.9863 14.7441C55.4121 14.4512 54.7969 14.3047 54.1406 14.3047C53.4844 14.3047 52.8633 14.4219 52.2773 14.6562C51.7031 14.8906 51.1992 15.2305 50.7656 15.6758C50.3438 16.1094 50.0098 16.6426 49.7637 17.2754C49.5176 17.9082 49.3945 18.623 49.3945 19.4199C49.3945 20.1113 49.5176 20.7676 49.7637 21.3887C50.0098 22.0098 50.3438 22.5547 50.7656 23.0234C51.1992 23.4922 51.7031 23.8613 52.2773 24.1309C52.8633 24.4004 53.4844 24.5352 54.1406 24.5352C54.7969 24.5352 55.4121 24.3945 55.9863 24.1133C56.5723 23.8203 57.082 23.4395 57.5156 22.9707C57.9492 22.4902 58.2891 21.9453 58.5352 21.3359C58.793 20.7148 58.9219 20.0762 58.9219 19.4199ZM73.1602 5.05859C73.1602 5.50391 73.0723 5.91992 72.8965 6.30664C72.7324 6.69336 72.5039 7.0332 72.2109 7.32617C71.9297 7.60742 71.5898 7.83594 71.1914 8.01172C70.8047 8.17578 70.3945 8.25781 69.9609 8.25781C69.5039 8.25781 69.0762 8.17578 68.6777 8.01172C68.291 7.83594 67.9512 7.60742 67.6582 7.32617C67.3652 7.0332 67.1309 6.69336 66.9551 6.30664C66.791 5.91992 66.709 5.50391 66.709 5.05859C66.709 4.625 66.791 4.21484 66.9551 3.82812C67.1309 3.42969 67.3652 3.08984 67.6582 2.80859C67.9512 2.51562 68.291 2.28711 68.6777 2.12305C69.0762 1.94727 69.5039 1.85938 69.9609 1.85938C70.3945 1.85938 70.8047 1.94727 71.1914 2.12305C71.5898 2.28711 71.9297 2.51562 72.2109 2.80859C72.5039 3.08984 72.7324 3.42969 72.8965 3.82812C73.0723 4.21484 73.1602 4.625 73.1602 5.05859ZM60.2754 36.1719V31.3379L62.9297 31.373C63.5742 31.373 64.1719 31.2383 64.7227 30.9688C65.2734 30.7109 65.748 30.3594 66.1465 29.9141C66.5566 29.4805 66.8789 28.9766 67.1133 28.4023C67.3477 27.8281 67.4648 27.2246 67.4648 26.5918V10.1738H72.3691V26.5918H72.334C72.3223 27.4707 72.1992 28.3203 71.9648 29.1406C71.7422 29.9609 71.4199 30.7227 70.998 31.4258C70.5762 32.1406 70.0723 32.7852 69.4863 33.3594C68.9004 33.9453 68.25 34.4434 67.5352 34.8535C66.832 35.2754 66.0762 35.5977 65.2676 35.8203C64.4473 36.0547 63.5977 36.1719 62.7188 36.1719H60.2754ZM94.2012 19.4199C94.2012 20.8262 93.9492 22.1387 93.4453 23.3574C92.9414 24.5645 92.2559 25.6133 91.3887 26.5039C90.5215 27.3828 89.502 28.0801 88.3301 28.5957C87.1699 29.0996 85.9219 29.3516 84.5859 29.3516C83.2617 29.3516 82.0137 29.0996 80.8418 28.5957C79.6816 28.0801 78.6621 27.3828 77.7832 26.5039C76.916 25.6133 76.2305 24.5645 75.7266 23.3574C75.2227 22.1387 74.9707 20.8262 74.9707 19.4199C74.9707 17.9902 75.2227 16.666 75.7266 15.4473C76.2305 14.2285 76.916 13.1797 77.7832 12.3008C78.6621 11.4102 79.6816 10.7129 80.8418 10.209C82.0137 9.70508 83.2617 9.45312 84.5859 9.45312C85.9219 9.45312 87.1699 9.69336 88.3301 10.1738C89.502 10.6426 90.5215 11.3164 91.3887 12.1953C92.2559 13.0625 92.9414 14.1113 93.4453 15.3418C93.9492 16.5605 94.2012 17.9199 94.2012 19.4199ZM89.3672 19.4199C89.3672 18.6465 89.2383 17.9492 88.9805 17.3281C88.7344 16.6953 88.3945 16.1562 87.9609 15.7109C87.5273 15.2539 87.0176 14.9082 86.4316 14.6738C85.8574 14.4277 85.2422 14.3047 84.5859 14.3047C83.9297 14.3047 83.3086 14.4277 82.7227 14.6738C82.1484 14.9082 81.6445 15.2539 81.2109 15.7109C80.7891 16.1562 80.4551 16.6953 80.209 17.3281C79.9629 17.9492 79.8398 18.6465 79.8398 19.4199C79.8398 20.1465 79.9629 20.8203 80.209 21.4414C80.4551 22.0625 80.7891 22.6016 81.2109 23.0586C81.6445 23.5156 82.1484 23.8789 82.7227 24.1484C83.3086 24.4062 83.9297 24.5352 84.5859 24.5352C85.2422 24.5352 85.8574 24.4121 86.4316 24.166C87.0176 23.9199 87.5273 23.5742 87.9609 23.1289C88.3945 22.6836 88.7344 22.1445 88.9805 21.5117C89.2383 20.8789 89.3672 20.1816 89.3672 19.4199ZM115.699 19.4199C115.699 20.8965 115.447 22.2441 114.943 23.4629C114.439 24.6816 113.754 25.7305 112.887 26.6094C112.02 27.4766 111 28.1504 109.828 28.6309C108.668 29.1113 107.42 29.3516 106.084 29.3516C104.76 29.3516 103.512 29.1055 102.34 28.6133C101.18 28.1211 100.16 27.4355 99.2812 26.5566C98.4141 25.6777 97.7285 24.6348 97.2246 23.4277C96.7207 22.209 96.4688 20.873 96.4688 19.4199V2.68555H101.285V11.4746C101.543 11.1465 101.854 10.8535 102.217 10.5957C102.592 10.3379 102.99 10.127 103.412 9.96289C103.846 9.79883 104.291 9.67578 104.748 9.59375C105.205 9.5 105.65 9.45312 106.084 9.45312C107.42 9.45312 108.668 9.70508 109.828 10.209C111 10.7012 112.02 11.3926 112.887 12.2832C113.754 13.1738 114.439 14.2285 114.943 15.4473C115.447 16.6543 115.699 17.9785 115.699 19.4199ZM110.865 19.4199C110.865 18.6934 110.736 18.0195 110.479 17.3984C110.232 16.7656 109.893 16.2207 109.459 15.7637C109.025 15.3066 108.516 14.9492 107.93 14.6914C107.355 14.4336 106.74 14.3047 106.084 14.3047C105.428 14.3047 104.807 14.4512 104.221 14.7441C103.646 15.0254 103.143 15.4062 102.709 15.8867C102.275 16.3555 101.936 16.9004 101.689 17.5215C101.443 18.1309 101.32 18.7637 101.32 19.4199C101.32 20.1465 101.443 20.8203 101.689 21.4414C101.936 22.0625 102.275 22.6016 102.709 23.0586C103.143 23.5156 103.646 23.8789 104.221 24.1484C104.807 24.4062 105.428 24.5352 106.084 24.5352C106.74 24.5352 107.355 24.4062 107.93 24.1484C108.516 23.8789 109.025 23.5156 109.459 23.0586C109.893 22.6016 110.232 22.0625 110.479 21.4414C110.736 20.8203 110.865 20.1465 110.865 19.4199ZM124.277 27.207C124.277 27.6289 124.201 28.0273 124.049 28.4023C123.896 28.7656 123.686 29.082 123.416 29.3516C123.146 29.6211 122.83 29.832 122.467 29.9844C122.104 30.1484 121.711 30.2305 121.289 30.2305C120.879 30.2305 120.486 30.1484 120.111 29.9844C119.748 29.832 119.426 29.6211 119.145 29.3516C118.875 29.082 118.658 28.7656 118.494 28.4023C118.342 28.0273 118.266 27.6289 118.266 27.207C118.266 26.7969 118.342 26.4102 118.494 26.0469C118.658 25.6836 118.875 25.3672 119.145 25.0977C119.426 24.8281 119.748 24.6172 120.111 24.4648C120.486 24.3008 120.879 24.2188 121.289 24.2188C121.711 24.2188 122.104 24.3008 122.467 24.4648C122.83 24.6172 123.146 24.8281 123.416 25.0977C123.686 25.3672 123.896 25.6836 124.049 26.0469C124.201 26.4102 124.277 26.7969 124.277 27.207Z" fill="white"/>
</svg>
